<svg width="138" height="138" viewBox="0 0 138 138" fill="none" xmlns="http://www.w3.org/2000/svg">
<path d="M97.8743 81.375C96.1954 81.375 94.6114 80.3396 94.0009 78.669C93.2213 76.5281 94.3185 74.1603 96.4594 73.3766L116.305 66.1083C116.503 66.034 116.709 65.9763 116.911 65.935C118.252 65.6669 119.296 64.6233 119.568 63.2785L126.692 27.6673C126.729 27.4528 126.749 27.23 126.749 27.0073C126.749 25.1428 125.236 23.6248 123.371 23.6248H110.249C107.968 23.6248 106.124 21.7768 106.124 19.4998C106.124 17.2228 107.968 15.3748 110.249 15.3748H123.371C129.781 15.3748 134.999 20.5929 134.999 27.0073C134.999 27.7704 134.921 28.5335 134.773 29.2843L127.649 64.9038C126.749 69.4083 123.322 72.9228 118.871 73.9499L99.2933 81.1233C98.8231 81.2925 98.3446 81.375 97.8743 81.375Z" fill="#F7F7F7" stroke="white" stroke-width="5"/>
<path d="M37.3737 81.375C36.8622 81.375 36.3466 81.2842 35.8434 81.0821L17.9325 73.9211C13.7498 72.8486 10.5488 69.3217 9.7279 64.8337L3.20213 29.2224C3.066 28.4923 3 27.7498 3 27.0073C3 20.5929 7.93764 15.3748 14.0055 15.3748H26.0341C28.3111 15.3748 30.1591 17.2228 30.1591 19.4998C30.1591 21.7768 28.3111 23.6248 26.0341 23.6248H14.0055C12.5123 23.6248 11.25 25.1717 11.25 27.0073C11.25 27.2548 11.2707 27.4982 11.316 27.7374L17.8459 63.3487C18.0893 64.6687 18.9803 65.7123 20.0693 65.9474C20.2921 65.9969 20.5066 66.0629 20.7211 66.1454L38.9124 73.4137C41.0285 74.2593 42.0598 76.6601 41.2141 78.7762C40.5624 80.3973 39.0114 81.375 37.3737 81.375Z" fill="#F7F7F7" stroke="white" stroke-width="5"/>
<path d="M95.824 135H39.2619C33.8622 135 29.4732 130.376 29.4732 124.696V119.441C29.4732 114.585 32.7526 110.341 37.2695 109.355L47.0664 107.214C47.813 107.053 48.3781 106.179 48.3781 105.18V96.8438C48.3781 96.1384 48.0894 95.466 47.6233 95.0865C38.54 87.6533 32.5175 76.8664 30.6571 64.7017L21.9574 7.74765C21.7759 6.55964 22.1224 5.35101 22.9062 4.43939C23.6899 3.52776 24.8326 2.99976 26.0329 2.99976H110.253C111.466 2.99976 112.617 3.53188 113.401 4.46001C114.184 5.38814 114.523 6.60914 114.325 7.8054L104.829 64.7636C102.799 76.9654 96.2242 87.777 86.3283 95.1938C85.8126 95.5774 85.5033 96.2003 85.5033 96.8438V105.18C85.5033 106.158 86.2004 107.008 87.1615 107.202L97.8453 109.338C102.647 110.3 106.128 114.548 106.128 119.441V124.696C106.128 130.376 101.504 135 95.824 135ZM30.8386 11.2498L38.8164 63.4601C40.3632 73.5994 45.3462 82.563 52.8496 88.701C55.2504 90.6645 56.6282 93.6346 56.6282 96.8438V105.18C56.6282 110.044 53.3488 114.288 48.8278 115.274L39.0309 117.415C38.2883 117.576 37.7232 118.447 37.7232 119.441V124.696C37.7232 125.806 38.4245 126.75 39.2619 126.75H95.824C96.9543 126.75 97.8783 125.826 97.8783 124.696V119.441C97.8783 118.467 97.1812 117.621 96.2242 117.428L85.5445 115.291C80.7389 114.326 77.2532 110.073 77.2532 105.18V96.8438C77.2532 93.618 78.7919 90.5367 81.3741 88.5938C89.5664 82.4516 95.0073 73.5045 96.6903 63.4065L105.382 11.2498H30.8386Z" fill="#F7F7F7" stroke="white" stroke-width="5"/>
</svg>
