<svg width="9" height="15" viewBox="0 0 9 15" fill="none" xmlns="http://www.w3.org/2000/svg">
<path d="M4.60378 0.663574C2.67493 0.663574 1.11133 2.22723 1.11133 4.15603C1.11133 6.08488 2.67493 7.64864 4.60378 7.64864C6.53264 7.64864 8.09624 6.08488 8.09624 4.15603C8.09624 2.22723 6.53264 0.663574 4.60378 0.663574ZM4.60378 5.59983C3.80646 5.59983 3.16008 4.9534 3.16008 4.15608C3.16008 3.35876 3.80646 2.71238 4.60378 2.71238C5.4011 2.71238 6.04749 3.35876 6.04749 4.15608C6.04749 4.9534 5.4011 5.59983 4.60378 5.59983Z" fill="white"/>
<path d="M5.83669 10.4274C7.23487 10.1426 8.07272 9.48045 8.11705 9.44491C8.52618 9.1168 8.59191 8.51914 8.26379 8.10996C7.93573 7.70083 7.33812 7.63511 6.92889 7.96317C6.92025 7.97017 6.02661 8.65569 4.55627 8.65669C3.08598 8.65569 2.17346 7.97017 2.16481 7.96317C1.75558 7.63511 1.15798 7.70083 0.829912 8.10996C0.501798 8.51914 0.567521 9.1168 0.976652 9.44491C1.02158 9.48095 1.89402 10.1603 3.33138 10.4384L1.32816 12.532C0.964107 12.9095 0.975053 13.5107 1.3526 13.8747C1.53687 14.0524 1.77437 14.1407 2.01167 14.1407C2.26047 14.1407 2.50902 14.0435 2.69534 13.8502L4.55632 11.8678L6.60528 13.8631C6.97652 14.2337 7.57767 14.2331 7.94822 13.862C8.31877 13.4909 8.31832 12.8896 7.94717 12.5191L5.83669 10.4274Z" fill="white"/>
</svg>
