<svg width="32" height="38" viewBox="0 0 32 38" fill="none" xmlns="http://www.w3.org/2000/svg">
<path d="M30.1881 8.74443L22.5041 0.839536C22.2465 0.575139 21.9387 0.364726 21.5988 0.220582C21.2589 0.0764371 20.8938 0.0014504 20.5246 0H3.82223C3.06127 0.00700183 2.33419 0.315722 1.80066 0.858366C1.26713 1.40101 0.970762 2.13321 0.976649 2.89419V35.1059C0.970762 35.8668 1.26713 36.599 1.80066 37.1417C2.33419 37.6843 3.06127 37.993 3.82223 38H28.1776C28.9386 37.993 29.6657 37.6843 30.1992 37.1417C30.7327 36.599 31.0291 35.8668 31.0232 35.1059V10.8035C31.0241 10.0345 30.7244 9.29555 30.1881 8.74443ZM21.5232 3.00024L28.2704 9.94187H21.6425C21.6167 9.94187 21.592 9.93163 21.5738 9.9134C21.5555 9.89517 21.5453 9.87045 21.5453 9.84466L21.5232 3.00024ZM28.1776 35.7907H3.82223C3.64759 35.7827 3.48309 35.7064 3.3641 35.5784C3.24511 35.4503 3.18114 35.2806 3.18595 35.1059V2.89419C3.18114 2.71943 3.24511 2.54977 3.3641 2.42168C3.48309 2.2936 3.64759 2.21734 3.82223 2.20931H19.3139V9.84466C19.3139 10.4564 19.5569 11.0431 19.9894 11.4756C20.422 11.9082 21.0087 12.1512 21.6204 12.1512H28.8139V35.128C28.8129 35.2989 28.7464 35.463 28.628 35.5863C28.5096 35.7096 28.3484 35.7828 28.1776 35.7907Z" fill="#131315"/>
<path d="M6.49918 13.9185H14.8945C15.1875 13.9185 15.4685 13.8022 15.6757 13.595C15.8828 13.3878 15.9992 13.1069 15.9992 12.8139C15.9992 12.5209 15.8828 12.2399 15.6757 12.0328C15.4685 11.8256 15.1875 11.7092 14.8945 11.7092H6.49918C6.20621 11.7092 5.92524 11.8256 5.71808 12.0328C5.51091 12.2399 5.39453 12.5209 5.39453 12.8139C5.39453 13.1069 5.51091 13.3878 5.71808 13.595C5.92524 13.8022 6.20621 13.9185 6.49918 13.9185Z" fill="#131315"/>
<path d="M25.4992 17.0117H6.49918C6.20621 17.0117 5.92524 17.1281 5.71808 17.3353C5.51091 17.5424 5.39453 17.8234 5.39453 18.1164C5.39453 18.4093 5.51091 18.6903 5.71808 18.8975C5.92524 19.1046 6.20621 19.221 6.49918 19.221H25.4992C25.7922 19.221 26.0732 19.1046 26.2803 18.8975C26.4875 18.6903 26.6039 18.4093 26.6039 18.1164C26.6039 17.8234 26.4875 17.5424 26.2803 17.3353C26.0732 17.1281 25.7922 17.0117 25.4992 17.0117Z" fill="#131315"/>
</svg>
