<svg width="162" height="65" viewBox="0 0 162 65" fill="none" xmlns="http://www.w3.org/2000/svg">
<path fill-rule="evenodd" clip-rule="evenodd" d="M108.656 0.0618954C126.527 0.0618954 141.047 14.5829 141.047 32.3919C141.047 50.2634 126.527 64.8463 108.656 64.8463C90.8459 64.8463 76.2637 50.2634 76.2637 32.3919C76.2637 14.5829 90.8459 0 108.656 0V0.0618838V0.0618954ZM108.656 50.6361C118.708 50.6361 126.899 42.4449 126.899 32.3919C126.899 22.4013 118.708 14.2102 108.656 14.2102C98.665 14.1483 90.4739 22.4013 90.4739 32.3919C90.4739 42.4449 98.665 50.6361 108.656 50.6361V50.6361Z" fill="#1F1A17"/>
<path fill-rule="evenodd" clip-rule="evenodd" d="M28.4822 38.9678C26.8072 38.9678 24.6352 38.5951 23.084 37.7267V44.0559C24.7589 44.5523 27.3037 45.0487 29.6614 45.0487C37.6043 45.0487 43.996 40.8916 43.996 32.3278C43.996 24.323 37.2942 20.3516 29.6614 20.3516C27.1173 20.3516 25.5661 20.5998 23.1459 21.0962V27.3635C24.5107 26.6807 26.6209 26.2468 28.234 26.2468C37.046 26.2468 36.6733 38.9677 28.4822 38.9677L28.4822 38.9678Z" fill="#838281"/>
<path fill-rule="evenodd" clip-rule="evenodd" d="M48.2166 32.7629L34.2539 52.7447H50.5124L57.3381 39.5885L64.6608 52.7447H82.0346L67.9496 32.7629L81.0426 13.7754H65.2809L59.0136 25.2552L53.181 13.7754H35.9296L48.2166 32.7629Z" fill="#625F5E"/>
<path fill-rule="evenodd" clip-rule="evenodd" d="M124.479 32.0207C124.293 30.6552 123.424 29.8486 121.749 29.8486C120.259 29.8486 119.143 30.9034 119.143 32.6409C119.143 34.3784 120.197 35.4338 121.935 35.4338C123.362 35.4338 124.355 34.6266 124.479 33.2618H122.803C122.741 33.7582 122.493 34.1302 121.935 34.1302C121.004 34.1302 120.88 33.4481 120.88 32.7035C120.88 31.648 121.252 31.1516 121.873 31.1516C122.369 31.1516 122.741 31.4624 122.803 32.0207H124.479V32.0207Z" fill="#1F1A17"/>
<path fill-rule="evenodd" clip-rule="evenodd" d="M93.6389 35.3083V33.5083L93.5785 32.6406L93.5146 31.8959L94.5089 35.3083H95.6864L96.6807 31.8959L96.6174 32.8262V33.6939V35.3083H98.1685V29.9707H96.06L95.0663 33.3226L94.1986 29.9707H92.0273V35.3083H93.6389Z" fill="#1F1A17"/>
<path fill-rule="evenodd" clip-rule="evenodd" d="M131.492 35.3083H133.229V33.6327L133.663 33.1975L134.969 35.3083H137.016L134.843 32.0203L136.83 29.9707H134.78L133.229 31.7102V29.9707H131.492V35.3083Z" fill="white"/>
<path fill-rule="evenodd" clip-rule="evenodd" d="M108.656 23.6419C113.558 23.6419 117.53 27.6134 117.53 32.3914C117.53 37.2938 113.558 41.2653 108.656 41.2653C103.815 41.2653 99.8438 37.2938 99.8438 32.3914C99.8438 27.5515 103.815 23.5801 108.656 23.5801V23.642V23.6419ZM108.656 35.7426C110.517 35.7426 112.006 34.2533 112.006 32.3913C112.006 30.5919 110.517 29.1027 108.656 29.1027C106.856 29.1027 105.367 30.5919 105.367 32.3913C105.367 34.2533 106.856 35.7426 108.656 35.7426V35.7426Z" fill="#DA251D"/>
<path fill-rule="evenodd" clip-rule="evenodd" d="M146.508 29.9707H146.694C147.874 29.9707 148.804 30.2808 148.804 31.3356C148.804 31.832 148.432 32.2665 148.122 32.5148C148.68 32.6385 148.99 33.135 148.99 33.6939C148.99 34.8725 148.122 35.307 146.694 35.307H146.508H144.15V29.9707H146.508V29.9707ZM146.508 32.1421H146.633C146.943 32.1421 147.191 31.9564 147.191 31.6457C147.191 31.2737 146.881 31.2737 146.508 31.2737L145.888 31.2118V32.1421H146.508V32.1421ZM146.508 34.0659H146.633C147.066 34.0659 147.377 33.9422 147.377 33.5695C147.377 33.135 147.005 33.0731 146.508 33.0731H146.446H145.888V34.0659H146.508V34.0659Z" fill="#1F1A17"/>
<path fill-rule="evenodd" clip-rule="evenodd" d="M159.478 29.9707H161.215V35.307H159.478V29.9707ZM156.375 31.832H156.562C157.865 31.832 158.734 32.4529 158.734 33.5695C158.734 34.7487 157.865 35.307 156.5 35.307H156.375H153.955V29.9707H155.693V31.832H156.375V31.832ZM156.375 34.0659C156.81 34.0659 157.12 33.9422 157.12 33.5695C157.12 33.1975 156.81 33.1349 156.375 33.0731C156.313 33.0731 156.189 33.0731 156.127 33.0731H155.693V34.0659H156.313H156.375V34.0659Z" fill="#1F1A17"/>
<path fill-rule="evenodd" clip-rule="evenodd" d="M28.6067 29.5384C30.5306 29.5384 31.399 30.8414 31.399 32.2688C31.399 34.0682 30.1579 35.123 28.6067 35.123C26.9311 35.123 25.8145 34.0682 25.8145 32.2688C25.8145 30.5932 26.993 29.4766 28.6067 29.4766V29.5384ZM28.6067 33.82C29.3514 33.82 29.6615 33.1372 29.6615 32.2688C29.6615 31.5861 29.3514 30.7795 28.6067 30.7795C27.8002 30.7795 27.552 31.5861 27.552 32.2688C27.552 32.9509 27.8002 33.82 28.6067 33.82Z" fill="#DC2F23"/>
<path fill-rule="evenodd" clip-rule="evenodd" d="M19.1133 29.6592H20.7882V31.3355L20.7264 32.6398L22.6502 29.6592H24.2633V34.9343H22.5883V33.2607L22.7121 31.8952L20.7882 34.9343H19.1133V29.6592Z" fill="#1F1A17"/>
<path fill-rule="evenodd" clip-rule="evenodd" d="M2.42028 29.6592H2.54405C4.09523 29.6592 4.77799 30.3419 4.77799 31.4593C4.77799 32.5759 4.15779 33.2587 2.60593 33.2587H2.42028H1.73751V34.9343H0V29.6592H2.42027L2.42028 29.6592ZM2.42028 32.0795C2.85415 32.0795 3.16493 31.8931 3.16493 31.4593C3.16493 31.0247 2.73038 30.9003 2.42028 30.9003C2.35772 30.9003 2.23395 30.9003 2.17206 30.9003H1.73752V32.0795H2.42028L2.42028 32.0795Z" fill="#1F1A17"/>
<path fill-rule="evenodd" clip-rule="evenodd" d="M8.0657 29.6592H8.9348L10.8586 34.9343H9.12045L8.87291 34.2515H8.0657H7.1354L6.94907 34.9343H5.27344L7.1354 29.6592H8.0657H8.0657ZM8.0657 33.1342H8.56213L8.0657 31.3348L8.00382 31.2729L7.50739 33.1342H8.0657Z" fill="#1F1A17"/>
<path fill-rule="evenodd" clip-rule="evenodd" d="M14.4577 29.6592H16.9398V33.6932H17.4363V36.1754H15.7606V34.9343H14.4577H13.2785V36.1754H11.6035V33.6932H12.0374C12.41 33.0104 12.4719 32.1413 12.4719 31.0247V29.6592H14.4577H14.4577ZM14.4577 33.6932H15.2023V30.9003H14.4577H14.1476V31.4593C14.1476 32.3277 14.0857 33.1342 13.713 33.6932H14.4577V33.6932Z" fill="#1F1A17"/>
</svg>
