<svg width="32" height="38" viewBox="0 0 32 38" fill="none" xmlns="http://www.w3.org/2000/svg">
<mask id="path-1-inside-1" fill="white">
<path d="M30.4556 25.7512C28.6021 22.3168 27.629 18.4722 27.6243 14.5648V13.6727C27.6243 7.88909 23.7412 2.90736 18.3926 1.82982L17.9939 1.75965C17.9344 1.27408 17.7003 0.827136 17.3358 0.503022C16.9713 0.178909 16.5015 0 16.015 0C15.5284 0 15.0586 0.178909 14.6941 0.503022C14.3296 0.827136 14.0955 1.27408 14.036 1.75965C11.3319 2.22328 8.87883 3.63589 7.11283 5.74643C5.34684 7.85697 4.38231 10.5287 4.39068 13.2868V14.5748C4.37967 18.4801 3.40149 22.3211 1.54443 25.7512L0.382999 27.9012C0.122475 28.3809 -0.00934364 28.9204 0.000515064 29.4669C0.0103738 30.0133 0.16157 30.5477 0.439224 31.0175C0.716879 31.4874 1.11142 31.8764 1.58402 32.1464C2.05662 32.4163 2.59099 32.5579 3.13454 32.5572H9.57475C9.95358 35.7547 12.5356 38 16 38C19.4643 38 22.0464 35.7547 22.4252 32.5572H28.8655C29.409 32.5579 29.9434 32.4163 30.416 32.1464C30.8886 31.8764 31.2831 31.4874 31.5608 31.0175C31.8384 30.5477 31.9896 30.0133 31.9995 29.4669C32.0093 28.9204 31.8775 28.3809 31.617 27.9012L30.4556 25.7512ZM16 35.4941C13.9563 35.4941 12.4509 34.3213 12.092 32.5572H19.908C19.5491 34.3213 18.0437 35.4941 16 35.4941ZM29.4188 29.7355C29.3624 29.8326 29.2816 29.9129 29.1844 29.9684C29.0872 30.0238 28.9772 30.0524 28.8655 30.0513H3.13454C3.02308 30.0522 2.91334 30.0237 2.81623 29.9687C2.71913 29.9137 2.63805 29.834 2.58107 29.7377C2.5241 29.6414 2.49321 29.5317 2.49149 29.4197C2.48977 29.3076 2.51728 29.1971 2.57127 29.099L3.7327 26.974C5.7862 23.1725 6.86387 18.9159 6.86807 14.5899V13.2768C6.86674 12.0688 7.1029 10.8724 7.56298 9.75651C8.02305 8.64059 8.69797 7.6271 9.54892 6.77432C10.3999 5.92153 11.4101 5.24626 12.5215 4.78734C13.6328 4.32841 14.8235 4.09488 16.0249 4.10017C16.6542 4.09978 17.282 4.16189 17.8992 4.2856C22.0913 5.1326 25.1319 9.07689 25.1319 13.6727V14.5648C25.132 18.8993 26.2098 23.165 28.2673 26.974L29.4287 29.1241C29.4787 29.2185 29.504 29.3242 29.5023 29.4311C29.5005 29.5381 29.4718 29.6428 29.4188 29.7355Z"/>
</mask>
<path d="M30.4556 25.7512C28.6021 22.3168 27.629 18.4722 27.6243 14.5648V13.6727C27.6243 7.88909 23.7412 2.90736 18.3926 1.82982L17.9939 1.75965C17.9344 1.27408 17.7003 0.827136 17.3358 0.503022C16.9713 0.178909 16.5015 0 16.015 0C15.5284 0 15.0586 0.178909 14.6941 0.503022C14.3296 0.827136 14.0955 1.27408 14.036 1.75965C11.3319 2.22328 8.87883 3.63589 7.11283 5.74643C5.34684 7.85697 4.38231 10.5287 4.39068 13.2868V14.5748C4.37967 18.4801 3.40149 22.3211 1.54443 25.7512L0.382999 27.9012C0.122475 28.3809 -0.00934364 28.9204 0.000515064 29.4669C0.0103738 30.0133 0.16157 30.5477 0.439224 31.0175C0.716879 31.4874 1.11142 31.8764 1.58402 32.1464C2.05662 32.4163 2.59099 32.5579 3.13454 32.5572H9.57475C9.95358 35.7547 12.5356 38 16 38C19.4643 38 22.0464 35.7547 22.4252 32.5572H28.8655C29.409 32.5579 29.9434 32.4163 30.416 32.1464C30.8886 31.8764 31.2831 31.4874 31.5608 31.0175C31.8384 30.5477 31.9896 30.0133 31.9995 29.4669C32.0093 28.9204 31.8775 28.3809 31.617 27.9012L30.4556 25.7512ZM16 35.4941C13.9563 35.4941 12.4509 34.3213 12.092 32.5572H19.908C19.5491 34.3213 18.0437 35.4941 16 35.4941ZM29.4188 29.7355C29.3624 29.8326 29.2816 29.9129 29.1844 29.9684C29.0872 30.0238 28.9772 30.0524 28.8655 30.0513H3.13454C3.02308 30.0522 2.91334 30.0237 2.81623 29.9687C2.71913 29.9137 2.63805 29.834 2.58107 29.7377C2.5241 29.6414 2.49321 29.5317 2.49149 29.4197C2.48977 29.3076 2.51728 29.1971 2.57127 29.099L3.7327 26.974C5.7862 23.1725 6.86387 18.9159 6.86807 14.5899V13.2768C6.86674 12.0688 7.1029 10.8724 7.56298 9.75651C8.02305 8.64059 8.69797 7.6271 9.54892 6.77432C10.3999 5.92153 11.4101 5.24626 12.5215 4.78734C13.6328 4.32841 14.8235 4.09488 16.0249 4.10017C16.6542 4.09978 17.282 4.16189 17.8992 4.2856C22.0913 5.1326 25.1319 9.07689 25.1319 13.6727V14.5648C25.132 18.8993 26.2098 23.165 28.2673 26.974L29.4287 29.1241C29.4787 29.2185 29.504 29.3242 29.5023 29.4311C29.5005 29.5381 29.4718 29.6428 29.4188 29.7355Z" fill="#131315" stroke="#FFECD0" stroke-width="0.4" mask="url(#path-1-inside-1)"/>
</svg>
