<svg width="43" height="28" viewBox="0 0 43 28" fill="none" xmlns="http://www.w3.org/2000/svg">
<mask id="path-1-inside-1" fill="white">
<path d="M42.4999 4.235C42.3386 4.11888 42.152 4.04288 41.9555 4.01332C41.759 3.98375 41.5582 4.00147 41.3699 4.065L31.4999 7.395V5.145C31.4973 3.78127 30.9544 2.47416 29.9901 1.50986C29.0258 0.545553 27.7187 0.00264289 26.3549 0H5.14499C3.78127 0.00264289 2.47415 0.545553 1.50985 1.50986C0.545551 2.47416 0.00264288 3.78127 0 5.145V22.855C0.00264288 24.2187 0.545551 25.5258 1.50985 26.4901C2.47415 27.4544 3.78127 27.9974 5.14499 28H26.3549C27.7187 27.9974 29.0258 27.4544 29.9901 26.4901C30.9544 25.5258 31.4973 24.2187 31.4999 22.855V20.605L41.3499 23.935C41.4787 23.9788 41.6139 24.0008 41.7499 24C42.0814 24 42.3994 23.8683 42.6338 23.6339C42.8682 23.3995 42.9999 23.0815 42.9999 22.75V5.25C43.0023 5.05342 42.9582 4.85905 42.8713 4.68269C42.7845 4.50633 42.6572 4.35294 42.4999 4.235ZM28.9999 22.855C28.9999 23.5565 28.7213 24.2293 28.2252 24.7253C27.7292 25.2213 27.0564 25.5 26.3549 25.5H5.14499C4.44349 25.5 3.77073 25.2213 3.2747 24.7253C2.77866 24.2293 2.49999 23.5565 2.49999 22.855V5.145C2.49999 4.4435 2.77866 3.77074 3.2747 3.2747C3.77073 2.77867 4.44349 2.5 5.14499 2.5H26.3549C27.0564 2.5 27.7292 2.77867 28.2252 3.2747C28.7213 3.77074 28.9999 4.4435 28.9999 5.145V22.855ZM40.4999 21L31.4999 17.965V10.035L40.4999 7V21Z"/>
</mask>
<path d="M42.4999 4.235C42.3386 4.11888 42.152 4.04288 41.9555 4.01332C41.759 3.98375 41.5582 4.00147 41.3699 4.065L31.4999 7.395V5.145C31.4973 3.78127 30.9544 2.47416 29.9901 1.50986C29.0258 0.545553 27.7187 0.00264289 26.3549 0H5.14499C3.78127 0.00264289 2.47415 0.545553 1.50985 1.50986C0.545551 2.47416 0.00264288 3.78127 0 5.145V22.855C0.00264288 24.2187 0.545551 25.5258 1.50985 26.4901C2.47415 27.4544 3.78127 27.9974 5.14499 28H26.3549C27.7187 27.9974 29.0258 27.4544 29.9901 26.4901C30.9544 25.5258 31.4973 24.2187 31.4999 22.855V20.605L41.3499 23.935C41.4787 23.9788 41.6139 24.0008 41.7499 24C42.0814 24 42.3994 23.8683 42.6338 23.6339C42.8682 23.3995 42.9999 23.0815 42.9999 22.75V5.25C43.0023 5.05342 42.9582 4.85905 42.8713 4.68269C42.7845 4.50633 42.6572 4.35294 42.4999 4.235ZM28.9999 22.855C28.9999 23.5565 28.7213 24.2293 28.2252 24.7253C27.7292 25.2213 27.0564 25.5 26.3549 25.5H5.14499C4.44349 25.5 3.77073 25.2213 3.2747 24.7253C2.77866 24.2293 2.49999 23.5565 2.49999 22.855V5.145C2.49999 4.4435 2.77866 3.77074 3.2747 3.2747C3.77073 2.77867 4.44349 2.5 5.14499 2.5H26.3549C27.0564 2.5 27.7292 2.77867 28.2252 3.2747C28.7213 3.77074 28.9999 4.4435 28.9999 5.145V22.855ZM40.4999 21L31.4999 17.965V10.035L40.4999 7V21Z" fill="#131315" stroke="#FFECD0" stroke-width="0.4" mask="url(#path-1-inside-1)"/>
</svg>
