<svg width="16" height="16" viewBox="0 0 16 16" fill="none" xmlns="http://www.w3.org/2000/svg">
<path d="M11.2781 0.993164H5.35546C2.94846 0.993164 0.990234 2.95139 0.990234 5.35839V11.281C0.990234 13.688 2.94846 15.6462 5.35546 15.6462H11.2781C13.6851 15.6462 15.6433 13.688 15.6433 11.281V5.35839C15.6433 2.95139 13.685 0.993164 11.2781 0.993164ZM14.1692 11.281C14.1692 12.8777 12.8748 14.1721 11.2781 14.1721H5.35546C3.75875 14.1721 2.46433 12.8777 2.46433 11.281V5.35839C2.46433 3.76165 3.75875 2.46726 5.35546 2.46726H11.2781C12.8748 2.46726 14.1692 3.76165 14.1692 5.35839V11.281Z" fill="white" stroke="black" stroke-width="0.2"/>
<path d="M8.31756 4.65625C6.29763 4.65625 4.6543 6.29959 4.6543 8.3195C4.6543 10.3394 6.29763 11.9828 8.31756 11.9828C10.3375 11.9828 11.9808 10.3394 11.9808 8.3195C11.9808 6.29957 10.3375 4.65625 8.31756 4.65625ZM8.31756 10.5579C7.08133 10.5579 6.07918 9.55577 6.07918 8.31953C6.07918 7.08329 7.08135 6.08113 8.31756 6.08113C9.5538 6.08113 10.5559 7.08329 10.5559 8.31953C10.5559 9.55574 9.55377 10.5579 8.31756 10.5579Z" fill="white" stroke="black" stroke-width="0.2"/>
<path d="M11.9803 5.57236C12.4861 5.57236 12.8961 5.16233 12.8961 4.65654C12.8961 4.15075 12.4861 3.74072 11.9803 3.74072C11.4745 3.74072 11.0645 4.15075 11.0645 4.65654C11.0645 5.16233 11.4745 5.57236 11.9803 5.57236Z" fill="white"/>
</svg>
