<svg width="158" height="158" viewBox="0 0 158 158" fill="none" xmlns="http://www.w3.org/2000/svg">
<path d="M69.4602 129.309C69.4602 129.309 76.1591 133.297 82.7658 134.044H82.7222C83.4008 134.088 84.1037 134.117 84.8501 134.142C130.046 135.45 159.904 79.0588 126.59 41.1113C164.427 83.267 123.313 149.925 68.2969 132.838C68.2969 132.838 70.9241 130.681 69.4602 129.309Z" fill="#CDCDCD"/>
<path d="M91.9378 141.977C94.7249 136.607 99.2086 132.887 104.012 131.388C105.51 136.207 105.025 142.051 102.233 147.411C99.4413 152.771 94.9624 156.501 90.1588 158C88.661 153.181 89.1506 147.338 91.9378 141.977Z" fill="#CDCDCD"/>
<path d="M108.897 144.531C106.764 139.112 106.842 133.883 108.694 129.436C111.057 130.485 113.191 131.996 114.973 133.88C116.754 135.765 118.147 137.986 119.071 140.415C121.204 145.834 121.127 151.478 119.275 155.925C114.913 154.002 111.025 149.95 108.897 144.531Z" fill="#CDCDCD"/>
<path d="M124.438 137.735C119.591 135.011 116.198 130.798 114.826 126.404C119.189 125.227 124.521 125.882 129.368 128.611C134.215 131.34 137.608 135.548 138.98 139.942C134.608 141.123 129.305 140.464 124.438 137.735Z" fill="#CDCDCD"/>
<path d="M106.827 113.857C111.282 117.226 114.064 121.864 114.825 126.404C110.332 126.975 105.164 125.593 100.715 122.225C96.265 118.856 93.4778 114.219 92.7168 109.683C97.2102 109.112 102.377 110.494 106.827 113.857Z" fill="#CDCDCD"/>
<path d="M136.949 125.198C131.84 123.592 127.817 120.316 125.65 116.538C129.504 114.638 134.603 114.263 139.707 115.874C144.811 117.485 148.835 120.756 151.001 124.529C147.153 126.433 142.053 126.814 136.949 125.198Z" fill="#CDCDCD"/>
<path d="M119.507 104.533C123.249 108.39 125.256 113.179 125.377 117.553C121.092 117.387 116.429 115.283 112.692 111.431C108.955 107.579 106.943 102.79 106.822 98.4109C111.107 98.5769 115.775 100.681 119.507 104.533Z" fill="#CDCDCD"/>
<path d="M145.566 111.856C140.438 112.105 135.741 110.562 132.537 107.95C135.378 105.021 139.842 103.068 144.97 102.8C150.099 102.531 154.796 104.093 158 106.705C155.159 109.62 150.695 111.607 145.566 111.856Z" fill="#CDCDCD"/>
<path d="M127.757 97.5516C130.801 100.676 132.449 104.528 132.561 108.033C129.085 107.857 125.29 106.129 122.251 103.005C119.212 99.8803 117.559 96.0284 117.447 92.5232C120.923 92.6989 124.713 94.4418 127.757 97.5516Z" fill="#CDCDCD"/>
<path d="M149.711 93.2848C145.926 96.1114 141.621 97.4393 137.947 97.2294C138.728 93.69 141.185 89.965 144.971 87.1384C148.757 84.3117 153.056 82.9838 156.73 83.1937C155.95 86.738 153.492 90.4581 149.711 93.2848Z" fill="#CDCDCD"/>
<path d="M133.484 86.5282C136.314 89.9455 137.802 94.0464 137.846 97.6932C134.54 97.3173 130.973 95.301 128.152 91.8837C125.33 88.4663 123.833 84.3703 123.789 80.7186C127.075 81.0994 130.648 83.1108 133.484 86.5282Z" fill="#CDCDCD"/>
<path d="M150.976 78.4827C147.951 81.8415 144.19 83.931 140.797 84.4827C140.942 81.0653 142.605 77.1597 145.644 73.8058C148.683 70.4519 152.43 68.3576 155.823 67.8059C155.663 71.2135 154.001 75.124 150.976 78.4827Z" fill="#CDCDCD"/>
<path d="M134.714 75.1727C137.947 77.7553 140.075 81.1922 140.783 84.4924C137.68 84.7414 134.03 83.5648 130.797 80.9822C127.564 78.3997 125.436 74.9628 124.729 71.6675C127.831 71.4136 131.481 72.5902 134.714 75.1727Z" fill="#CDCDCD"/>
<path d="M148.566 61.4251C146.274 65.0866 143.152 67.7082 140.113 68.8457C139.774 65.6627 140.743 61.7327 143.021 58.0663C145.299 54.4 148.436 51.7832 151.475 50.6458C151.824 53.8288 150.854 57.7588 148.566 61.4251Z" fill="#CDCDCD"/>
<path d="M132.678 64.4325C135.62 65.0135 138.256 66.6384 140.109 69.0118C138.025 70.408 135.063 70.9646 131.917 70.2958C128.976 69.7169 126.339 68.0936 124.486 65.7214C126.571 64.3202 129.532 63.7686 132.678 64.4325Z" fill="#CDCDCD"/>
<path d="M143.803 50.4115C142.373 54.2829 140.027 57.3585 137.501 59.033C136.663 56.1527 136.871 52.3057 138.296 48.4343C139.721 44.5629 142.072 41.4921 144.597 39.8127C145.417 42.6931 145.228 46.5401 143.803 50.4115Z" fill="#CDCDCD"/>
<path d="M136.429 42.3367C136.206 45.6222 135.004 48.5221 133.298 50.4017C131.873 48.4098 131.082 45.4367 131.31 42.1512C131.538 38.8656 132.735 35.9609 134.427 34.0813C135.867 36.078 136.657 39.0511 136.429 42.3367Z" fill="#CDCDCD"/>
<path d="M128.601 35.6484C128.51 37.6654 127.778 39.5996 126.512 41.165C125.466 39.4805 125.005 37.4935 125.203 35.5166C125.284 33.5018 126.008 31.567 127.268 30C128.325 31.6804 128.794 33.6686 128.601 35.6484Z" fill="#CDCDCD"/>
<path d="M121.055 39.0805C123.05 39.1651 124.964 39.8963 126.513 41.1651C124.843 42.2255 122.87 42.6961 120.905 42.5028C118.905 42.4171 116.984 41.6863 115.428 40.4182C117.103 39.3535 119.084 38.8827 121.055 39.0805Z" fill="#CDCDCD"/>
<path d="M127.568 46.7793C129.737 47.0386 131.721 48.1382 133.099 49.8451C132.358 50.5399 131.472 51.0587 130.505 51.3637C129.539 51.6686 128.517 51.7519 127.515 51.6075C125.347 51.3512 123.364 50.2551 121.984 48.5514C122.725 47.855 123.611 47.3343 124.577 47.0276C125.543 46.721 126.565 46.6361 127.568 46.7793Z" fill="#CDCDCD"/>
<path d="M131.214 54.9467C132.449 55.1381 133.634 55.5782 134.697 56.2409C135.759 56.9035 136.678 57.7751 137.399 58.8035C136.617 59.647 135.642 60.2848 134.559 60.6609C133.475 61.0371 132.317 61.1402 131.185 60.9613C129.95 60.7705 128.766 60.3311 127.703 59.6693C126.641 59.0075 125.721 58.1369 125 57.1094C125.78 56.2629 126.755 55.6228 127.839 55.2457C128.922 54.8685 130.082 54.7658 131.214 54.9467Z" fill="#CDCDCD"/>
<path d="M122.712 34.2912C124.071 35.7731 124.92 37.6558 125.135 39.6614C123.204 39.227 121.471 38.1568 120.211 36.6199C118.85 35.1392 118 33.2559 117.787 31.2498C119.719 31.6831 121.452 32.7535 122.712 34.2912Z" fill="#CDCDCD"/>
<path d="M88.5394 129.309C88.5394 129.309 81.8454 133.297 75.2337 134.044H75.2822C74.6036 134.088 73.8959 134.117 73.1494 134.142C27.954 135.45 -1.90008 79.0588 31.4149 41.1113C-6.42738 83.267 34.6867 149.925 89.7075 132.838C89.7075 132.838 87.0803 130.681 88.5394 129.309Z" fill="#CDCDCD"/>
<path d="M66.0621 141.977C63.275 136.607 58.7913 132.887 53.9925 131.388C52.4899 136.207 52.9795 142.051 55.7666 147.411C58.5538 152.771 63.0374 156.501 67.841 158C69.3388 153.181 68.8541 147.338 66.0621 141.977Z" fill="#CDCDCD"/>
<path d="M49.1075 144.531C51.2355 139.112 51.1579 134.025 49.3111 129.572C46.9519 130.594 44.8185 132.079 43.0358 133.941C41.253 135.803 39.8567 138.004 38.9284 140.415C36.7956 145.834 36.8731 151.478 38.7248 155.925C43.0873 154.002 46.9747 149.95 49.1075 144.531Z" fill="#CDCDCD"/>
<path d="M33.566 137.735C38.4133 135.011 41.8063 130.798 43.1781 126.404C38.8156 125.227 33.4836 125.882 28.6364 128.611C23.7892 131.34 20.3961 135.548 19.0195 139.942C23.3917 141.123 28.6994 140.464 33.566 137.735Z" fill="#CDCDCD"/>
<path d="M51.1728 113.857C46.723 117.226 43.9359 121.864 43.1797 126.404C47.6682 126.975 52.8354 125.593 57.2899 122.225C61.7445 118.856 64.5268 114.219 65.283 109.683C60.7896 109.112 55.6225 110.494 51.1728 113.857Z" fill="#CDCDCD"/>
<path d="M21.0559 125.198C26.1601 123.592 30.1832 120.316 32.35 116.538C28.5013 114.638 23.402 114.263 18.293 115.874C13.184 117.485 9.16085 120.756 6.99414 124.529C10.8525 126.433 15.947 126.814 21.0559 125.198Z" fill="#CDCDCD"/>
<path d="M38.4911 104.533C34.7539 108.39 32.7423 113.179 32.6211 117.553C36.906 117.387 41.5739 115.283 45.3111 111.431C49.0483 107.579 51.0599 102.79 51.1811 98.4109C46.8962 98.5769 42.2283 100.681 38.4911 104.533Z" fill="#CDCDCD"/>
<path d="M12.438 111.856C17.5663 112.105 22.2584 110.562 25.4625 107.95C22.622 105.021 18.1577 103.068 13.0293 102.8C7.90097 102.531 3.20401 104.093 0 106.705C2.84047 109.62 7.30961 111.607 12.438 111.856Z" fill="#CDCDCD"/>
<path d="M30.2411 97.5516C27.197 100.676 25.5538 104.528 25.4375 108.033C28.9178 107.857 32.7083 106.129 35.7524 103.005C38.7964 99.8803 40.4445 96.0284 40.556 92.5232C37.0805 92.6989 33.2852 94.4418 30.2411 97.5516Z" fill="#CDCDCD"/>
<path d="M8.29315 93.2848C12.074 96.1115 16.3783 97.4394 20.0574 97.2295C19.2721 93.69 16.8194 89.9651 13.0337 87.1385C9.24806 84.3118 4.94857 82.9839 1.26953 83.2134C2.04993 86.7381 4.50748 90.4582 8.29315 93.2848Z" fill="#CDCDCD"/>
<path d="M24.5227 86.5282C21.6919 89.9455 20.2038 94.0464 20.1602 97.6932C23.466 97.3173 27.0384 95.301 29.8546 91.8837C32.6708 88.4663 34.1735 84.3703 34.2171 80.7186C30.9258 81.0994 27.3534 83.1108 24.5227 86.5282Z" fill="#CDCDCD"/>
<path d="M7.02886 78.4827C10.0535 81.8415 13.815 83.931 17.208 84.4827C17.0578 81.0653 15.3952 77.1597 12.3608 73.8058C9.32644 70.4519 5.57469 68.3576 2.18164 67.8059C2.3416 71.2135 3.99935 75.124 7.02886 78.4827Z" fill="#CDCDCD"/>
<path d="M23.266 75.1727C20.0329 77.7553 17.934 81.1922 17.1973 84.4924C20.2995 84.7414 23.9543 83.5648 27.1874 80.9822C30.4205 78.3997 32.563 74.9628 33.2706 71.6675C30.1684 71.4136 26.5185 72.5902 23.266 75.1727Z" fill="#CDCDCD"/>
<path d="M9.43804 61.4251C11.7259 65.0866 14.8475 67.7082 17.8867 68.8457C18.2261 65.6627 17.2566 61.7327 14.9784 58.0663C12.7002 54.4 9.55437 51.7832 6.51516 50.6458C6.17586 53.8288 7.1453 57.7588 9.43804 61.4251Z" fill="#CDCDCD"/>
<path d="M25.3263 64.4325C22.3833 65.0132 19.745 66.6381 17.8906 69.0118C19.9798 70.408 22.9366 70.9646 26.0873 70.2958C29.0279 69.7157 31.6644 68.0926 33.5181 65.7214C31.4289 64.3202 28.4721 63.7686 25.3263 64.4325Z" fill="#CDCDCD"/>
<path d="M14.2028 50.4115C15.6279 54.2829 17.974 57.3585 20.5042 59.033C21.3379 56.1527 21.1344 52.3057 19.7044 48.4343C18.2745 44.5629 15.9333 41.4921 13.403 39.8127C12.5693 42.6931 12.7729 46.5401 14.2028 50.4115Z" fill="#CDCDCD"/>
<path d="M21.5754 42.3367C21.8129 45.6222 23.0005 48.5221 24.6921 50.4017C26.1124 48.4098 26.9025 45.4367 26.6746 42.1512C26.4468 38.8656 25.2496 35.9609 23.5579 34.0813C22.1376 36.078 21.3282 39.0511 21.5754 42.3367Z" fill="#CDCDCD"/>
<path d="M29.3983 35.6484C29.4833 37.6632 30.2089 39.5971 31.468 41.165C32.5247 39.4843 32.9938 37.4964 32.801 35.5166C32.7167 33.5017 31.991 31.5676 30.7312 30C29.6784 31.6823 29.2096 33.6689 29.3983 35.6484Z" fill="#CDCDCD"/>
<path d="M36.9461 39.0803C34.945 39.1625 33.0238 39.8937 31.4688 41.1649C33.1389 42.2254 35.112 42.696 37.077 42.5026C39.0776 42.4176 40.9979 41.6868 42.5543 40.418C40.8844 39.3569 38.9112 38.8862 36.9461 39.0803Z" fill="#CDCDCD"/>
<path d="M30.4301 46.7793C28.262 47.0373 26.2794 48.1373 24.9043 49.8452C25.6456 50.5399 26.5318 51.0587 27.498 51.3637C28.4642 51.6686 29.4859 51.752 30.4883 51.6075C32.6551 51.3525 34.6376 50.256 36.0141 48.5514C35.2751 47.8529 34.3894 47.3309 33.4228 47.0241C32.4561 46.7173 31.4333 46.6337 30.4301 46.7793Z" fill="#CDCDCD"/>
<path d="M26.7905 54.9467C25.5552 55.1381 24.3708 55.5783 23.3081 56.2409C22.2455 56.9035 21.3263 57.7751 20.6055 58.8035C21.3872 59.6474 22.3625 60.2854 23.4458 60.6616C24.5292 61.0377 25.6876 61.1407 26.8196 60.9613C28.0546 60.7705 29.2387 60.3311 30.3013 59.6694C31.364 59.0076 32.2834 58.1369 33.0047 57.1095C32.2244 56.2633 31.2495 55.6234 30.1658 55.2463C29.0821 54.8691 27.923 54.7663 26.7905 54.9467Z" fill="#CDCDCD"/>
<path d="M35.2869 34.2912C33.928 35.7731 33.0783 37.6558 32.8633 39.6614C34.8027 39.2331 36.5436 38.1622 37.8074 36.6199C39.1681 35.1392 40.0181 33.2559 40.2311 31.2498C38.2925 31.6802 36.5522 32.7507 35.2869 34.2912Z" fill="#CDCDCD"/>
<path d="M74.9066 19.6C73.7066 19.6667 72.8233 19.8 72.2566 20C71.7233 20.2 71.3566 20.5833 71.1566 21.15C70.9566 21.7167 70.8566 22.6333 70.8566 23.9V48.7C70.8566 49.9667 70.9566 50.8833 71.1566 51.45C71.3566 52.0167 71.7233 52.4 72.2566 52.6C72.8233 52.8 73.7066 52.9333 74.9066 53V54C73.3733 53.9 71.2566 53.85 68.5566 53.85C65.69 53.85 63.5566 53.9 62.1566 54V53C63.3566 52.9333 64.2233 52.8 64.7566 52.6C65.3233 52.4 65.7066 52.0167 65.9066 51.45C66.1066 50.8833 66.2066 49.9667 66.2066 48.7V23.9C66.2066 22.6333 66.1066 21.7167 65.9066 21.15C65.7066 20.5833 65.3233 20.2 64.7566 20C64.2233 19.8 63.3566 19.6667 62.1566 19.6V18.6C63.5566 18.7 65.69 18.75 68.5566 18.75C71.2233 18.75 73.34 18.7 74.9066 18.6V19.6ZM91.85 19.6C90.65 19.6667 89.7667 19.8 89.2 20C88.6667 20.2 88.3 20.5833 88.1 21.15C87.9 21.7167 87.8 22.6333 87.8 23.9V48.7C87.8 49.9667 87.9 50.8833 88.1 51.45C88.3 52.0167 88.6667 52.4 89.2 52.6C89.7667 52.8 90.65 52.9333 91.85 53V54C90.3167 53.9 88.2 53.85 85.5 53.85C82.6333 53.85 80.5 53.9 79.1 54V53C80.3 52.9333 81.1667 52.8 81.7 52.6C82.2667 52.4 82.65 52.0167 82.85 51.45C83.05 50.8833 83.15 49.9667 83.15 48.7V23.9C83.15 22.6333 83.05 21.7167 82.85 21.15C82.65 20.5833 82.2667 20.2 81.7 20C81.1667 19.8 80.3 19.6667 79.1 19.6V18.6C80.5 18.7 82.6333 18.75 85.5 18.75C88.1667 18.75 90.2833 18.7 91.85 18.6V19.6Z" fill="#CDCDCD"/>
</svg>
