<svg width="158" height="158" viewBox="0 0 158 158" fill="none" xmlns="http://www.w3.org/2000/svg">
<g clip-path="url(#clip0)">
<path d="M69.4602 130.028C69.4602 130.028 76.1591 133.917 82.7658 134.645H82.7222C83.4008 134.688 84.1037 134.717 84.8501 134.74C130.046 136.016 159.904 81.0387 126.59 44.043C164.427 85.1414 123.313 150.128 68.2969 133.47C68.2969 133.47 70.9241 131.366 69.4602 130.028Z" fill="#7B5900"/>
<path d="M91.9378 142.379C94.7249 137.144 99.2086 133.517 104.012 132.056C105.51 136.754 105.025 142.451 102.233 147.677C99.4413 152.903 94.9624 156.539 90.1588 158C88.661 153.302 89.1506 147.605 91.9378 142.379Z" fill="#7B5900"/>
<path d="M108.897 144.869C106.764 139.585 106.842 134.488 108.694 130.152C111.057 131.175 113.191 132.648 114.973 134.485C116.754 136.322 118.147 138.488 119.071 140.856C121.204 146.139 121.127 151.641 119.275 155.977C114.913 154.102 111.025 150.152 108.897 144.869Z" fill="#7B5900"/>
<path d="M124.438 138.243C119.591 135.588 116.198 131.48 114.826 127.196C119.189 126.049 124.521 126.687 129.368 129.348C134.215 132.008 137.608 136.111 138.98 140.395C134.608 141.546 129.305 140.904 124.438 138.243Z" fill="#7B5900"/>
<path d="M106.827 114.964C111.282 118.248 114.064 122.77 114.825 127.196C110.332 127.753 105.164 126.406 100.715 123.122C96.265 119.838 93.4778 115.317 92.7168 110.895C97.2102 110.338 102.377 111.685 106.827 114.964Z" fill="#7B5900"/>
<path d="M136.949 126.021C131.84 124.455 127.817 121.261 125.65 117.577C129.504 115.726 134.603 115.359 139.707 116.93C144.811 118.501 148.835 121.69 151.001 125.369C147.153 127.225 142.053 127.596 136.949 126.021Z" fill="#7B5900"/>
<path d="M119.507 105.874C123.249 109.634 125.256 114.303 125.377 118.567C121.092 118.406 116.429 116.354 112.692 112.599C108.955 108.844 106.943 104.175 106.822 99.9054C111.107 100.067 115.775 102.119 119.507 105.874Z" fill="#7B5900"/>
<path d="M145.566 113.013C140.438 113.256 135.741 111.752 132.537 109.205C135.378 106.35 139.842 104.446 144.97 104.184C150.099 103.922 154.796 105.445 158 107.992C155.159 110.833 150.695 112.77 145.566 113.013Z" fill="#7B5900"/>
<path d="M127.757 99.0676C130.801 102.114 132.449 105.869 132.561 109.286C129.085 109.115 125.29 107.43 122.251 104.384C119.212 101.338 117.559 97.5826 117.447 94.1653C120.923 94.3366 124.713 96.0358 127.757 99.0676Z" fill="#7B5900"/>
<path d="M149.711 94.9078C145.926 97.6636 141.621 98.9582 137.947 98.7535C138.728 95.3029 141.185 91.6714 144.971 88.9156C148.757 86.1598 153.056 84.8653 156.73 85.0699C155.95 88.5253 153.492 92.1521 149.711 94.9078Z" fill="#7B5900"/>
<path d="M133.484 88.3207C136.314 91.6524 137.802 95.6503 137.846 99.2057C134.54 98.8392 130.973 96.8735 128.152 93.5419C125.33 90.2102 123.833 86.217 123.789 82.6569C127.075 83.0281 130.648 84.989 133.484 88.3207Z" fill="#7B5900"/>
<path d="M150.976 80.4771C147.951 83.7516 144.19 85.7887 140.797 86.3265C140.942 82.9948 142.605 79.1872 145.644 75.9174C148.683 72.6477 152.43 70.6058 155.823 70.068C155.663 73.3901 154.001 77.2025 150.976 80.4771Z" fill="#7B5900"/>
<path d="M134.714 77.25C137.947 79.7678 140.075 83.1185 140.783 86.3359C137.68 86.5786 134.03 85.4316 130.797 82.9138C127.564 80.396 125.436 77.0453 124.729 73.8326C127.831 73.5851 131.481 74.7322 134.714 77.25Z" fill="#7B5900"/>
<path d="M148.566 63.8473C146.274 67.4169 143.152 69.9728 140.113 71.0817C139.774 67.9785 140.743 64.1471 143.021 60.5727C145.299 56.9983 148.436 54.4472 151.475 53.3383C151.824 56.4415 150.854 60.2729 148.566 63.8473Z" fill="#7B5900"/>
<path d="M132.678 66.7791C135.62 67.3455 138.256 68.9297 140.109 71.2436C138.025 72.6048 135.063 73.1474 131.917 72.4953C128.976 71.931 126.339 70.3484 124.486 68.0357C126.571 66.6697 129.532 66.1318 132.678 66.7791Z" fill="#7B5900"/>
<path d="M143.803 53.1098C142.373 56.8841 140.027 59.8826 137.501 61.5151C136.663 58.707 136.871 54.9565 138.296 51.1822C139.721 47.4079 142.072 44.4141 144.597 42.7769C145.417 45.585 145.228 49.3355 143.803 53.1098Z" fill="#7B5900"/>
<path d="M136.431 45.2376C136.208 48.4407 135.006 51.2679 133.3 53.1003C131.875 51.1584 131.084 48.2598 131.312 45.0567C131.54 41.8535 132.737 39.0216 134.429 37.1892C135.869 39.1359 136.659 42.0344 136.431 45.2376Z" fill="#7B5900"/>
<path d="M128.601 38.717C128.51 40.6834 127.778 42.5691 126.512 44.0952C125.466 42.4529 125.005 40.5158 125.203 38.5885C125.284 36.6242 126.008 34.7379 127.268 33.2102C128.325 34.8485 128.794 36.7868 128.601 38.717V38.717Z" fill="#7B5900"/>
<path d="M121.055 42.0628C123.05 42.1453 124.964 42.8581 126.513 44.0951C124.843 45.1289 122.87 45.5877 120.905 45.3992C118.905 45.3157 116.984 44.6033 115.428 43.3669C117.103 42.3289 119.084 41.87 121.055 42.0628V42.0628Z" fill="#7B5900"/>
<path d="M127.568 49.5687C129.737 49.8215 131.721 50.8936 133.099 52.5577C132.358 53.235 131.472 53.7408 130.505 54.0381C129.539 54.3354 128.517 54.4167 127.515 54.2759C125.347 54.026 123.364 52.9574 121.984 51.2964C122.725 50.6174 123.611 50.1098 124.577 49.8109C125.543 49.5119 126.565 49.4291 127.568 49.5687Z" fill="#7B5900"/>
<path d="M131.214 57.5313C132.449 57.7179 133.634 58.147 134.697 58.793C135.759 59.4391 136.678 60.2888 137.399 61.2914C136.617 62.1138 135.642 62.7355 134.559 63.1022C133.475 63.469 132.317 63.5695 131.185 63.3951C129.95 63.2091 128.766 62.7807 127.703 62.1355C126.641 61.4903 125.721 60.6415 125 59.6398C125.78 58.8145 126.755 58.1905 127.839 57.8228C128.922 57.455 130.082 57.355 131.214 57.5313V57.5313Z" fill="#7B5900"/>
<path d="M122.712 37.3939C124.071 38.8386 124.92 40.6741 125.135 42.6294C123.204 42.2058 121.471 41.1625 120.211 39.6642C118.85 38.2206 118 36.3845 117.787 34.4287C119.719 34.8512 121.452 35.8947 122.712 37.3939V37.3939Z" fill="#7B5900"/>
<path d="M88.5394 130.028C88.5394 130.028 81.8454 133.917 75.2337 134.645H75.2822C74.6036 134.688 73.8959 134.717 73.1494 134.74C27.954 136.016 -1.90008 81.0387 31.4149 44.043C-6.42738 85.1414 34.6867 150.128 89.7076 133.47C89.7076 133.47 87.0804 131.366 88.5394 130.028Z" fill="#7B5900"/>
<path d="M66.0621 142.379C63.275 137.144 58.7913 133.517 53.9925 132.056C52.4899 136.754 52.9795 142.451 55.7666 147.677C58.5538 152.903 63.0374 156.539 67.841 158C69.3388 153.302 68.8541 147.605 66.0621 142.379Z" fill="#7B5900"/>
<path d="M49.1075 144.869C51.2355 139.585 51.1579 134.626 49.3111 130.285C46.9519 131.281 44.8185 132.729 43.0358 134.544C41.253 136.359 39.8567 138.505 38.9284 140.856C36.7956 146.139 36.8731 151.641 38.7248 155.977C43.0873 154.102 46.9747 150.152 49.1075 144.869Z" fill="#7B5900"/>
<path d="M33.566 138.243C38.4133 135.588 41.8063 131.48 43.1781 127.196C38.8156 126.049 33.4836 126.687 28.6364 129.348C23.7892 132.008 20.3961 136.111 19.0195 140.395C23.3917 141.546 28.6994 140.904 33.566 138.243Z" fill="#7B5900"/>
<path d="M51.1728 114.964C46.723 118.248 43.9359 122.77 43.1797 127.196C47.6682 127.753 52.8354 126.406 57.29 123.122C61.7445 119.838 64.5268 115.317 65.283 110.895C60.7896 110.338 55.6225 111.685 51.1728 114.964Z" fill="#7B5900"/>
<path d="M21.0559 126.021C26.1601 124.455 30.1832 121.261 32.35 117.577C28.5013 115.726 23.402 115.359 18.293 116.93C13.184 118.501 9.16085 121.69 6.99414 125.369C10.8525 127.225 15.947 127.596 21.0559 126.021Z" fill="#7B5900"/>
<path d="M38.4911 105.874C34.7539 109.634 32.7423 114.303 32.6211 118.567C36.906 118.406 41.5739 116.354 45.3111 112.599C49.0483 108.844 51.0599 104.175 51.1811 99.9054C46.8962 100.067 42.2283 102.119 38.4911 105.874Z" fill="#7B5900"/>
<path d="M12.438 113.013C17.5663 113.256 22.2584 111.752 25.4625 109.205C22.622 106.35 18.1577 104.446 13.0293 104.184C7.90097 103.922 3.20401 105.445 0 107.992C2.84047 110.833 7.30961 112.77 12.438 113.013Z" fill="#7B5900"/>
<path d="M30.2411 99.0676C27.197 102.114 25.5538 105.869 25.4375 109.286C28.9178 109.115 32.7083 107.43 35.7524 104.384C38.7964 101.338 40.4445 97.5826 40.556 94.1653C37.0805 94.3366 33.2852 96.0358 30.2411 99.0676Z" fill="#7B5900"/>
<path d="M8.29315 94.9078C12.074 97.6636 16.3783 98.9582 20.0574 98.7535C19.2721 95.3029 16.8194 91.6714 13.0337 88.9156C9.24806 86.1598 4.94857 84.8653 1.26953 85.089C2.04993 88.5253 4.50748 92.1521 8.29315 94.9078Z" fill="#7B5900"/>
<path d="M24.5227 88.3207C21.6919 91.6524 20.2038 95.6503 20.1602 99.2057C23.466 98.8392 27.0384 96.8735 29.8546 93.5419C32.6708 90.2102 34.1735 86.217 34.2171 82.6569C30.9258 83.0281 27.3534 84.989 24.5227 88.3207Z" fill="#7B5900"/>
<path d="M7.02886 80.4771C10.0535 83.7516 13.815 85.7887 17.208 86.3265C17.0578 82.9948 15.3952 79.1872 12.3608 75.9174C9.32644 72.6477 5.57469 70.6058 2.18164 70.068C2.3416 73.3901 3.99935 77.2025 7.02886 80.4771Z" fill="#7B5900"/>
<path d="M23.266 77.25C20.0329 79.7678 17.934 83.1185 17.1973 86.3359C20.2995 86.5786 23.9543 85.4316 27.1874 82.9138C30.4205 80.396 32.563 77.0453 33.2706 73.8326C30.1684 73.5851 26.5185 74.7322 23.266 77.25Z" fill="#7B5900"/>
<path d="M9.43804 63.8473C11.7259 67.4169 14.8475 69.9728 17.8867 71.0817C18.2261 67.9785 17.2566 64.1471 14.9784 60.5727C12.7002 56.9983 9.55437 54.4472 6.51516 53.3383C6.17586 56.4415 7.1453 60.2729 9.43804 63.8473Z" fill="#7B5900"/>
<path d="M25.3263 66.7791C22.3833 67.3453 19.745 68.9294 17.8906 71.2436C19.9798 72.6048 22.9366 73.1474 26.0873 72.4953C29.0279 71.9298 31.6644 70.3474 33.5181 68.0357C31.4289 66.6697 28.4721 66.1318 25.3263 66.7791Z" fill="#7B5900"/>
<path d="M14.2028 53.1098C15.6279 56.8841 17.974 59.8826 20.5042 61.5151C21.3379 58.707 21.1344 54.9565 19.7044 51.1822C18.2745 47.4079 15.9333 44.4141 13.403 42.7769C12.5693 45.585 12.7729 49.3355 14.2028 53.1098Z" fill="#7B5900"/>
<path d="M21.5754 45.2376C21.8129 48.4407 23.0005 51.2679 24.6921 53.1003C26.1124 51.1584 26.9025 48.2598 26.6746 45.0567C26.4468 41.8535 25.2496 39.0216 23.5579 37.1892C22.1376 39.1359 21.3282 42.0344 21.5754 45.2376Z" fill="#7B5900"/>
<path d="M29.3983 38.717C29.4833 40.6812 30.2089 42.5666 31.468 44.0952C32.5247 42.4567 32.9938 40.5186 32.801 38.5885C32.7167 36.6241 31.991 34.7385 30.7312 33.2102C29.6784 34.8503 29.2096 36.7871 29.3983 38.717V38.717Z" fill="#7B5900"/>
<path d="M36.9461 42.0629C34.945 42.143 33.0238 42.8559 31.4688 44.0952C33.1389 45.1291 35.112 45.5879 37.077 45.3993C39.0776 45.3165 40.9979 44.604 42.5543 43.367C40.8844 42.3325 38.9112 41.8737 36.9461 42.0629V42.0629Z" fill="#7B5900"/>
<path d="M30.4301 49.5687C28.262 49.8203 26.2794 50.8926 24.9043 52.5577C25.6456 53.235 26.5318 53.7408 27.498 54.0381C28.4642 54.3354 29.4859 54.4166 30.4883 54.2758C32.6551 54.0272 34.6376 52.9582 36.0141 51.2964C35.2751 50.6154 34.3894 50.1064 33.4228 49.8074C32.4561 49.5083 31.4333 49.4267 30.4301 49.5687V49.5687Z" fill="#7B5900"/>
<path d="M26.7905 57.5312C25.5552 57.7178 24.3708 58.1469 23.3081 58.793C22.2455 59.439 21.3263 60.2887 20.6055 61.2913C21.3872 62.114 22.3625 62.736 23.4458 63.1027C24.5292 63.4695 25.6876 63.5698 26.8196 63.395C28.0546 63.209 29.2387 62.7806 30.3014 62.1354C31.364 61.4902 32.2834 60.6414 33.0047 59.6397C32.2244 58.8148 31.2495 58.191 30.1658 57.8233C29.0821 57.4556 27.923 57.3553 26.7905 57.5312Z" fill="#7B5900"/>
<path d="M35.2869 37.3939C33.928 38.8386 33.0783 40.6741 32.8633 42.6294C34.8027 42.2118 36.5436 41.1678 37.8074 39.6642C39.1681 38.2206 40.0181 36.3845 40.2311 34.4287C38.2925 34.8483 36.5522 35.892 35.2869 37.3939V37.3939Z" fill="#7B5900"/>
</g>
<path d="M68.8116 19.6C67.6116 19.6667 66.7283 19.8 66.1616 20C65.6283 20.2 65.2616 20.5833 65.0616 21.15C64.8616 21.7167 64.7616 22.6333 64.7616 23.9V48.7C64.7616 49.9667 64.8616 50.8833 65.0616 51.45C65.2616 52.0167 65.6283 52.4 66.1616 52.6C66.7283 52.8 67.6116 52.9333 68.8116 53V54C67.2783 53.9 65.1616 53.85 62.4616 53.85C59.5949 53.85 57.4616 53.9 56.0616 54V53C57.2616 52.9333 58.1283 52.8 58.6616 52.6C59.2283 52.4 59.6116 52.0167 59.8116 51.45C60.0116 50.8833 60.1116 49.9667 60.1116 48.7V23.9C60.1116 22.6333 60.0116 21.7167 59.8116 21.15C59.6116 20.5833 59.2283 20.2 58.6616 20C58.1283 19.8 57.2616 19.6667 56.0616 19.6V18.6C57.4616 18.7 59.5949 18.75 62.4616 18.75C65.1283 18.75 67.2449 18.7 68.8116 18.6V19.6ZM85.7549 19.6C84.5549 19.6667 83.6716 19.8 83.1049 20C82.5716 20.2 82.2049 20.5833 82.0049 21.15C81.8049 21.7167 81.7049 22.6333 81.7049 23.9V48.7C81.7049 49.9667 81.8049 50.8833 82.0049 51.45C82.2049 52.0167 82.5716 52.4 83.1049 52.6C83.6716 52.8 84.5549 52.9333 85.7549 53V54C84.2216 53.9 82.1049 53.85 79.4049 53.85C76.5383 53.85 74.4049 53.9 73.0049 54V53C74.2049 52.9333 75.0716 52.8 75.6049 52.6C76.1716 52.4 76.5549 52.0167 76.7549 51.45C76.9549 50.8833 77.0549 49.9667 77.0549 48.7V23.9C77.0549 22.6333 76.9549 21.7167 76.7549 21.15C76.5549 20.5833 76.1716 20.2 75.6049 20C75.0716 19.8 74.2049 19.6667 73.0049 19.6V18.6C74.4049 18.7 76.5383 18.75 79.4049 18.75C82.0716 18.75 84.1883 18.7 85.7549 18.6V19.6ZM102.698 19.6C101.498 19.6667 100.615 19.8 100.048 20C99.515 20.2 99.1483 20.5833 98.9483 21.15C98.7483 21.7167 98.6483 22.6333 98.6483 23.9V48.7C98.6483 49.9667 98.7483 50.8833 98.9483 51.45C99.1483 52.0167 99.515 52.4 100.048 52.6C100.615 52.8 101.498 52.9333 102.698 53V54C101.165 53.9 99.0483 53.85 96.3483 53.85C93.4816 53.85 91.3483 53.9 89.9483 54V53C91.1483 52.9333 92.015 52.8 92.5483 52.6C93.115 52.4 93.4983 52.0167 93.6983 51.45C93.8983 50.8833 93.9983 49.9667 93.9983 48.7V23.9C93.9983 22.6333 93.8983 21.7167 93.6983 21.15C93.4983 20.5833 93.115 20.2 92.5483 20C92.015 19.8 91.1483 19.6667 89.9483 19.6V18.6C91.3483 18.7 93.4816 18.75 96.3483 18.75C99.015 18.75 101.132 18.7 102.698 18.6V19.6Z" fill="#7B5900"/>
<defs>
<clipPath id="clip0">
<rect width="158" height="124.79" fill="white" transform="translate(0 33.2102)"/>
</clipPath>
</defs>
</svg>
