<svg width="16" height="8" viewBox="0 0 16 8" fill="none" xmlns="http://www.w3.org/2000/svg">
<path fill-rule="evenodd" clip-rule="evenodd" d="M15.6329 0.541707C15.7441 0.229449 15.6329 0 15.1035 0H13.3531C12.908 0 12.7029 0.198211 12.5916 0.416779C12.5916 0.416779 11.7014 2.24347 10.4404 3.43002C10.0325 3.77349 9.847 3.88277 9.62446 3.88277C9.51321 3.88277 9.35215 3.77349 9.35215 3.46126V0.541707C9.35215 0.166998 9.22298 0 8.85206 0H6.10142C5.82329 0 5.65602 0.173911 5.65602 0.338733C5.65602 0.693951 6.28649 0.775868 6.35148 1.77509V3.94525C6.35148 4.42105 6.24942 4.50732 6.02688 4.50732C5.43349 4.50732 3.99005 2.67247 3.13395 0.57292C2.96618 0.164841 2.79791 0 2.35055 0H0.600145C0.100029 0 0 0.198211 0 0.416779C0 0.807107 0.593427 2.74308 2.76309 5.30354C4.20953 7.05213 6.24746 8 8.10189 8C9.21453 8 9.35218 7.78947 9.35218 7.42684V6.10526C9.35218 5.68421 9.45758 5.60018 9.80992 5.60018C10.0695 5.60018 10.5146 5.70946 11.5531 6.55255C12.7399 7.55175 12.9356 8 13.6032 8H15.3536C15.8537 8 16.1037 7.78947 15.9595 7.37401C15.8016 6.95994 15.235 6.35917 14.4831 5.64701C14.0751 5.24109 13.4632 4.80396 13.2777 4.58534C13.0181 4.30434 13.0923 4.17941 13.2777 3.92963C13.2777 3.92963 15.4103 1.40038 15.6329 0.541707Z" fill="white"/>
</svg>
